<svg id="undraw_coding_re_iv62" xmlns="http://www.w3.org/2000/svg" width="406" height="223.186" viewBox="0 0 406 223.186">
  <path id="Path_1" data-name="Path 1" d="M281.246,614.41c-9.016,6.721-11.571,18.546-11.571,18.546s12.062.928,21.078-5.792,11.571-18.546,11.571-18.546S290.262,607.689,281.246,614.41Z" transform="translate(-219.313 -423.707)" fill="#f1f1f1"/>
  <path id="Path_2" data-name="Path 2" d="M283.351,602.592c-4.333,10.377-15.185,15.724-15.185,15.724s-3.827-11.477.506-21.853,15.185-15.724,15.185-15.724S287.684,592.216,283.351,602.592Z" transform="translate(-217.662 -408.734)" fill="#f1f1f1"/>
  <path id="Path_3" data-name="Path 3" d="M860.953,527.879h0a89.94,89.94,0,0,1-.755-19.5l.755-10.77h0C856.795,505.887,857.734,516.778,860.953,527.879Z" transform="translate(-535.877 -364.018)" fill="#cacaca"/>
  <path id="Path_4" data-name="Path 4" d="M869.649,546.04h0a66.117,66.117,0,0,1-.363-11.606l.363-6.411h0C867.649,532.949,868.1,539.432,869.649,546.04Z" transform="translate(-541.33 -380.377)" fill="#cacaca"/>
  <path id="Path_5" data-name="Path 5" d="M866.327,582.912v3.6a1.087,1.087,0,0,1-1.081,1.081h-1.8a.359.359,0,0,0-.36.36V617.5A1.086,1.086,0,0,1,862,618.584h-21.98a1.082,1.082,0,0,1-1.081-1.081V587.956a.361.361,0,0,0-.36-.36H836.42a1.082,1.082,0,0,1-1.081-1.081v-3.6a1.079,1.079,0,0,1,1.081-1.081h28.826A1.084,1.084,0,0,1,866.327,582.912Z" transform="translate(-523.593 -409.321)" fill="#f2f2f2"/>
  <rect id="Rectangle_9" data-name="Rectangle 9" width="24.142" height="1.081" transform="translate(315.382 179.032)" fill="#e6e6e6"/>
  <path id="Path_6" data-name="Path 6" d="M866.86,619.173a31.026,31.026,0,0,1-24.5,0v-7.616a38.479,38.479,0,0,1,24.5,0Z" transform="translate(-527.368 -424.234)" fill="#e6e6e6"/>
  <circle id="Ellipse_276" data-name="Ellipse 276" cx="32.654" cy="32.654" r="32.654" transform="translate(171.519 13.19)" fill="#feb8b8"/>
  <path id="Path_1461" data-name="Path 1461" d="M589.963,226.173a37.712,37.712,0,0,0-21.455-16.4L564.5,212.7v-3.8a34.71,34.71,0,0,0-6.484-.378l-3.459,3.129v-2.869a37.352,37.352,0,0,0-25.767,15.327c-7.511,10.828-8.779,25.891-1.391,36.806,2.028-6.232,4.489-12.08,6.517-18.311a18.447,18.447,0,0,0,4.805.023l2.467-5.757.689,5.513c7.647-.666,18.99-2.129,26.239-3.469l-.705-4.23,4.218,3.515c2.221-.511,3.54-.975,3.431-1.329,5.392,8.692,11.99,14.244,17.382,22.936C594.49,247.549,596.846,237.358,589.963,226.173Z" transform="translate(-355.291 -208.5)" fill="#2f2e41"/>
  <path id="Path_7" data-name="Path 7" d="M595.212,435.923c-1.123-6.755-2.281-13.64-5.421-19.726-2.063-3.986-5.339-7.784-9.754-8.573a9.436,9.436,0,0,1-2.54-.588c-1.294-.623-18.68-10.548-21.443-12.277-2.373-1.484-6.118-4.232-8.007-4.232-1.9-.042-9.185,1.654-37.62-.569a102.7,102.7,0,0,0-13.856,6.812c-.092-.06-29.513,15.739-30.618,15.7a6.429,6.429,0,0,0-5.239,2.94,19.017,19.017,0,0,0-2.352,5.8c6.426,14.311,12.306,28.64,18.732,42.95a3.665,3.665,0,0,1,.465,1.763,4.3,4.3,0,0,1-.8,1.763c-3.152,5.063-3.051,11.43-2.707,17.38s.771,12.235-1.889,17.568c-.723,1.464-1.664,2.8-2.352,4.269-1.611,3.316-2.193,13.923-1.252,17.486l117.887,3.377C583.913,520.794,595.212,435.923,595.212,435.923Z" transform="translate(-320.811 -306.11)" fill="#6c63ff"/>
  <path id="Path_1421" data-name="Path 1421" d="M436.082,542.585a20.813,20.813,0,0,0-.07,5.133l1.69,24.265c.159,2.287.315,4.568.529,6.85.405,4.427,1.011,8.82,1.763,13.205a2.352,2.352,0,0,0,2.41,2.287c7.438,1.574,15.122,1.511,22.713,1.082,11.583-.646,41.217-1.87,43.027-4.221s.755-6.156-1.605-8.058-41.467-6.538-41.467-6.538a38.536,38.536,0,0,1,2.628-8.755c1.964-5.1,3.8-10.366,3.834-15.828s-2.023-11.205-6.5-14.335c-3.681-2.569-8.42-3.046-12.905-2.94-3.263.094-8.9-.688-11.883.588C437.89,536.36,436.523,540.276,436.082,542.585Z" transform="translate(-308.72 -383.905)" fill="#fbbebe"/>
  <path id="Path_1430" data-name="Path 1430" d="M444.116,454.159a6.086,6.086,0,0,0-1.3,2.087,98.694,98.694,0,0,0-8.29,33.878,3.387,3.387,0,0,1-.382,1.641,7.183,7.183,0,0,1-.864.935,3.246,3.246,0,0,0,.388,4.574q.08.068.165.13c.97-1.826,3.292-2.422,5.357-2.581,9.883-.782,19.538,3.816,29.451,3.469-.7-2.417-1.705-4.739-2.276-7.185-2.522-10.86,3.769-22.683-.088-33.143a8.548,8.548,0,0,0-4.086-5.068,10.884,10.884,0,0,0-2.616-.692c-2.5-.453-7.491-2.387-9.913-1.611-.894.288-1.246,1.129-1.987,1.637C446.542,452.948,445.049,453.212,444.116,454.159Z" transform="translate(-306.904 -338.628)" fill="#6c63ff"/>
  <path id="Path_1421-2" data-name="Path 1421" d="M674.57,535.321c-2.981-1.276-8.619-.494-11.883-.588-4.485-.106-9.224.371-12.905,2.94-4.475,3.129-6.532,8.872-6.5,14.335s1.87,10.729,3.834,15.828a38.536,38.536,0,0,1,2.628,8.755s-39.106,4.636-41.467,6.538-3.416,5.706-1.605,8.058,58.3,4.713,65.74,3.139a2.352,2.352,0,0,0,2.41-2.287c.752-4.386,1.357-8.778,1.763-13.205.215-2.281.371-4.563.529-6.85l1.69-24.265a20.819,20.819,0,0,0-.07-5.133C678.3,540.276,676.929,536.36,674.57,535.321Z" transform="translate(-400.098 -383.905)" fill="#fbbebe"/>
  <path id="Path_1430-2" data-name="Path 1430" d="M710.28,452.229c-.741-.508-1.093-1.348-1.987-1.637-2.422-.776-7.408,1.158-9.913,1.611a10.882,10.882,0,0,0-2.616.692,8.548,8.548,0,0,0-4.086,5.068c-3.857,10.46,2.434,22.284-.088,33.143-.57,2.446-1.576,4.768-2.276,7.185,9.913.347,19.567-4.251,29.451-3.469,2.064.159,4.386.755,5.357,2.581q.084-.062.164-.13a3.246,3.246,0,0,0,.388-4.574,7.179,7.179,0,0,1-.864-.935,3.387,3.387,0,0,1-.382-1.641,98.7,98.7,0,0,0-8.29-33.878,6.087,6.087,0,0,0-1.3-2.087C712.9,453.213,711.405,452.948,710.28,452.229Z" transform="translate(-445.043 -338.628)" fill="#6c63ff"/>
  <circle id="Ellipse_1" data-name="Ellipse 1" cx="8.813" cy="8.813" r="8.813" transform="translate(185.689 193.953)" fill="#fbbebe"/>
  <circle id="Ellipse_2" data-name="Ellipse 2" cx="8.813" cy="8.813" r="8.813" transform="translate(205.203 193.953)" fill="#fbbebe"/>
  <path id="Path_8" data-name="Path 8" d="M594.414,592.364H473.335A5.338,5.338,0,0,1,468,587.032V513.576a5.338,5.338,0,0,1,5.332-5.332h121.08a5.338,5.338,0,0,1,5.332,5.332v73.456A5.338,5.338,0,0,1,594.414,592.364Z" transform="translate(-325.996 -369.738)" fill="#3f3d56"/>
  <circle id="Ellipse_263" data-name="Ellipse 263" cx="3.528" cy="3.528" r="3.528" transform="translate(204.057 177.039)" fill="#fff"/>
  <path id="Path_9" data-name="Path 9" d="M406,449.724H0V462.2H24.014v2.9h357.98v-2.9H406Z" transform="translate(0 -241.914)" fill="#f1f1f1"/>
  <path id="Path_10" data-name="Path 10" d="M526.5,304.155h0c-5.247,0-9.5-4.6-9.5-10.272h0v-5.136c0-5.673,4.253-10.272,9.5-10.272h0v25.68Z" transform="translate(-352.351 -246.141)" fill="#6c63ff"/>
  <path id="Path_11" data-name="Path 11" d="M668.779,278.476h0c5.247,0,9.5,4.6,9.5,10.272v5.136c0,5.673-4.253,10.272-9.5,10.272h0Z" transform="translate(-433.997 -246.141)" fill="#6c63ff"/>
  <path id="Path_12" data-name="Path 12" d="M595.328,256.919h-1.507c0-20.669-15.552-37.484-34.668-37.484s-34.668,16.816-34.668,37.484h-1.507c0-21.568,16.228-39.114,36.176-39.114S595.328,235.351,595.328,256.919Z" transform="translate(-355.568 -213.505)" fill="#6c63ff"/>
</svg>
